<svg width="362" height="156" viewBox="0 0 362 156" fill="none" xmlns="http://www.w3.org/2000/svg">
<g filter="url(#filter0_d_645_35)">
<path d="M54.2443 108.773V84.8075H53.8949C53.3125 86.0888 52.4777 87.3409 51.3906 88.5639C50.3229 89.7675 48.9543 90.7576 47.2848 91.5341C45.6153 92.3106 43.5964 92.6989 41.228 92.6989C37.8696 92.6989 34.8217 91.8253 32.0845 90.0781C29.3667 88.331 27.2022 85.7491 25.5909 82.3324C23.9796 78.9157 23.174 74.6934 23.174 69.6655C23.174 64.5017 23.9991 60.2211 25.6491 56.8239C27.3187 53.4266 29.522 50.8932 32.2592 49.2237C34.9964 47.5348 37.9763 46.6903 41.1989 46.6903C43.6449 46.6903 45.7027 47.1077 47.3722 47.9425C49.0611 48.7772 50.4297 49.8255 51.478 51.0874C52.5263 52.3298 53.3319 53.5819 53.8949 54.8438H54.3899V47.2727H67.2607V108.773H54.2443ZM45.5085 82.4197C47.411 82.4197 49.032 81.8956 50.3714 80.8473C51.7109 79.7796 52.7301 78.2945 53.429 76.392C54.1473 74.4702 54.5064 72.2183 54.5064 69.6364C54.5064 67.0544 54.157 64.822 53.4581 62.9389C52.7592 61.0365 51.7401 59.5708 50.4006 58.5419C49.0611 57.4936 47.4304 56.9695 45.5085 56.9695C43.5478 56.9695 41.8977 57.5033 40.5582 58.571C39.2382 59.6193 38.2287 61.0947 37.5298 62.9972C36.831 64.8996 36.4815 67.1127 36.4815 69.6364C36.4815 72.1795 36.831 74.4119 37.5298 76.3338C38.2287 78.2363 39.2479 79.7311 40.5874 80.8182C41.9268 81.8859 43.5672 82.4197 45.5085 82.4197ZM100.676 72.8686V47.2727H113.663V92H101.23V83.8175H100.764C99.7541 86.477 98.0749 88.6027 95.726 90.1946C93.377 91.7865 90.5233 92.5824 87.1649 92.5824C84.1559 92.5824 81.506 91.9029 79.2153 90.544C76.9246 89.1657 75.1386 87.2244 73.8573 84.7202C72.5955 82.1965 71.9549 79.2166 71.9355 75.7805V47.2727H84.9518V73.3636C84.9712 75.9261 85.6507 77.9548 86.9902 79.4496C88.3491 80.925 90.1836 81.6626 92.4937 81.6626C93.9497 81.6626 95.2989 81.3326 96.5413 80.6726C97.7837 79.9931 98.7835 79.0031 99.5406 77.7024C100.317 76.3823 100.696 74.7711 100.676 72.8686ZM138.904 92.8445C134.284 92.8445 130.304 91.9223 126.965 90.0781C123.626 88.2145 121.054 85.5646 119.248 82.1286C117.462 78.6731 116.569 74.5769 116.569 69.8402C116.569 65.2199 117.472 61.1821 119.277 57.7266C121.083 54.2517 123.616 51.5436 126.878 49.6023C130.158 47.661 134.012 46.6903 138.438 46.6903C141.466 46.6903 144.271 47.1757 146.853 48.1463C149.435 49.0975 151.677 50.5244 153.58 52.4268C155.502 54.3293 156.997 56.7074 158.064 59.5611C159.132 62.3954 159.666 65.6858 159.666 69.4325V72.8977H121.549V65.0064H147.465C147.465 63.3175 147.086 61.8227 146.329 60.522C145.572 59.2019 144.534 58.1634 143.213 57.4062C141.893 56.6491 140.379 56.2706 138.671 56.2706C136.885 56.2706 135.293 56.688 133.895 57.5227C132.517 58.3381 131.43 59.4252 130.634 60.7841C129.857 62.143 129.45 63.6669 129.411 65.3558V73.0433C129.411 75.1399 129.809 76.955 130.605 78.4886C131.401 80.0028 132.517 81.1773 133.954 82.0121C135.409 82.8468 137.137 83.2642 139.137 83.2642C140.476 83.2642 141.69 83.0798 142.777 82.7109C143.883 82.3227 144.834 81.7597 145.63 81.022C146.426 80.2843 147.028 79.3719 147.436 78.2848L159.433 78.9254C158.87 81.7403 157.686 84.196 155.88 86.2926C154.075 88.3698 151.736 89.9811 148.863 91.1264C145.989 92.2718 142.67 92.8445 138.904 92.8445ZM191.334 72.8686V47.2727H204.322V92H191.888V83.8175H191.422C190.412 86.477 188.733 88.6027 186.384 90.1946C184.035 91.7865 181.181 92.5824 177.823 92.5824C174.814 92.5824 172.164 91.9029 169.873 90.544C167.583 89.1657 165.797 87.2244 164.515 84.7202C163.254 82.1965 162.613 79.2166 162.594 75.7805V47.2727H175.61V73.3636C175.629 75.9261 176.309 77.9548 177.648 79.4496C179.007 80.925 180.842 81.6626 183.152 81.6626C184.608 81.6626 185.957 81.3326 187.199 80.6726C188.442 79.9931 189.442 79.0031 190.199 77.7024C190.975 76.3823 191.354 74.7711 191.334 72.8686ZM229.562 92.8445C224.942 92.8445 220.962 91.9223 217.623 90.0781C214.284 88.2145 211.712 85.5646 209.906 82.1286C208.12 78.6731 207.227 74.5769 207.227 69.8402C207.227 65.2199 208.13 61.1821 209.935 57.7266C211.741 54.2517 214.274 51.5436 217.536 49.6023C220.816 47.661 224.67 46.6903 229.096 46.6903C232.124 46.6903 234.93 47.1757 237.511 48.1463C240.093 49.0975 242.336 50.5244 244.238 52.4268C246.16 54.3293 247.655 56.7074 248.722 59.5611C249.79 62.3954 250.324 65.6858 250.324 69.4325V72.8977H212.207V65.0064H238.123C238.123 63.3175 237.744 61.8227 236.987 60.522C236.23 59.2019 235.192 58.1634 233.872 57.4062C232.551 56.6491 231.037 56.2706 229.329 56.2706C227.543 56.2706 225.951 56.688 224.553 57.5227C223.175 58.3381 222.088 59.4252 221.292 60.7841C220.515 62.143 220.108 63.6669 220.069 65.3558V73.0433C220.069 75.1399 220.467 76.955 221.263 78.4886C222.059 80.0028 223.175 81.1773 224.612 82.0121C226.068 82.8468 227.795 83.2642 229.795 83.2642C231.134 83.2642 232.348 83.0798 233.435 82.7109C234.541 82.3227 235.492 81.7597 236.288 81.022C237.084 80.2843 237.686 79.3719 238.094 78.2848L250.091 78.9254C249.528 81.7403 248.344 84.196 246.538 86.2926C244.733 88.3698 242.394 89.9811 239.521 91.1264C236.648 92.2718 233.328 92.8445 229.562 92.8445ZM253.252 92V47.2727H265.889V55.1932H266.355C267.171 52.3589 268.52 50.2332 270.403 48.816C272.305 47.3795 274.499 46.6612 276.984 46.6612C277.624 46.6612 278.294 46.7 278.993 46.7777C279.711 46.8553 280.352 46.9621 280.915 47.098V58.571C280.294 58.3769 279.459 58.2119 278.411 58.076C277.362 57.9401 276.411 57.8722 275.557 57.8722C273.771 57.8722 272.179 58.2604 270.781 59.0369C269.384 59.8134 268.277 60.8909 267.462 62.2692C266.666 63.6281 266.268 65.2199 266.268 67.0447V92H253.252ZM282.205 92V47.2727H294.842V55.1932H295.308C296.124 52.3589 297.473 50.2332 299.356 48.816C301.258 47.3795 303.452 46.6612 305.937 46.6612C306.577 46.6612 307.247 46.7 307.946 46.7777C308.664 46.8553 309.305 46.9621 309.868 47.098V58.571C309.247 58.3769 308.412 58.2119 307.364 58.076C306.315 57.9401 305.364 57.8722 304.51 57.8722C302.724 57.8722 301.132 58.2604 299.734 59.0369C298.337 59.8134 297.23 60.8909 296.415 62.2692C295.619 63.6281 295.221 65.2199 295.221 67.0447V92H282.205ZM311.158 92V47.2727H323.795V55.1932H324.261C325.077 52.3589 326.426 50.2332 328.309 48.816C330.211 47.3795 332.405 46.6612 334.89 46.6612C335.531 46.6612 336.2 46.7 336.899 46.7777C337.617 46.8553 338.258 46.9621 338.821 47.098V58.571C338.2 58.3769 337.365 58.2119 336.317 58.076C335.268 57.9401 334.317 57.8722 333.463 57.8722C331.677 57.8722 330.085 58.2604 328.687 59.0369C327.29 59.8134 326.183 60.8909 325.368 62.2692C324.572 63.6281 324.174 65.2199 324.174 67.0447V92H311.158Z" fill="white"/>
</g>
<g filter="url(#filter1_d_645_35)">
<path d="M141.186 135V108.818H146.888V118.688H147.041C147.288 118.134 147.642 117.584 148.102 117.038C148.563 116.484 149.159 116.024 149.892 115.658C150.634 115.291 151.541 115.108 152.615 115.108C154.03 115.108 155.338 115.479 156.54 116.22C157.741 116.953 158.705 118.065 159.429 119.557C160.162 121.048 160.528 122.928 160.528 125.195C160.528 127.402 160.175 129.256 159.467 130.756C158.768 132.256 157.818 133.389 156.616 134.156C155.415 134.923 154.077 135.307 152.602 135.307C151.571 135.307 150.689 135.136 149.956 134.795C149.223 134.455 148.618 134.02 148.141 133.491C147.663 132.955 147.297 132.405 147.041 131.842H146.824V135H141.186ZM146.773 125.182C146.773 126.315 146.926 127.304 147.233 128.148C147.548 128.983 148 129.635 148.588 130.104C149.176 130.564 149.888 130.794 150.723 130.794C151.575 130.794 152.295 130.56 152.884 130.091C153.472 129.614 153.919 128.957 154.226 128.122C154.533 127.278 154.686 126.298 154.686 125.182C154.686 124.074 154.533 123.102 154.226 122.267C153.928 121.432 153.484 120.784 152.896 120.324C152.308 119.855 151.584 119.621 150.723 119.621C149.888 119.621 149.176 119.851 148.588 120.311C148 120.763 147.548 121.406 147.233 122.241C146.926 123.068 146.773 124.048 146.773 125.182ZM164.754 142.364C164.047 142.364 163.382 142.308 162.76 142.197C162.138 142.087 161.613 141.95 161.187 141.788L162.466 137.557C163.096 137.753 163.667 137.864 164.179 137.889C164.69 137.915 165.133 137.808 165.508 137.57C165.883 137.339 166.182 136.939 166.403 136.368L166.697 135.614L159.679 115.364H165.675L169.599 129.643H169.804L173.754 115.364H179.788L172.233 137.045C171.866 138.102 171.363 139.031 170.724 139.832C170.094 140.634 169.288 141.256 168.308 141.699C167.336 142.142 166.152 142.364 164.754 142.364Z" fill="#EBEF15"/>
<path d="M196.936 115.364V119.621H184.919V115.364H196.936ZM187.578 110.659H193.28V128.915C193.28 129.384 193.352 129.75 193.497 130.014C193.65 130.27 193.855 130.453 194.111 130.564C194.375 130.666 194.686 130.717 195.044 130.717C195.291 130.717 195.547 130.696 195.811 130.653C196.075 130.602 196.271 130.564 196.399 130.538L197.294 134.744C197.013 134.83 196.616 134.932 196.105 135.051C195.594 135.17 194.976 135.243 194.251 135.268C192.888 135.328 191.703 135.158 190.697 134.757C189.7 134.348 188.924 133.717 188.37 132.865C187.825 132.004 187.561 130.926 187.578 129.631V110.659ZM206.991 135.371C204.963 135.371 203.215 134.966 201.75 134.156C200.284 133.338 199.154 132.175 198.362 130.666C197.578 129.149 197.186 127.351 197.186 125.271C197.186 123.243 197.582 121.47 198.375 119.953C199.167 118.428 200.279 117.239 201.711 116.386C203.152 115.534 204.843 115.108 206.786 115.108C208.116 115.108 209.348 115.321 210.481 115.747C211.615 116.165 212.599 116.791 213.434 117.626C214.278 118.462 214.934 119.506 215.403 120.759C215.872 122.003 216.106 123.447 216.106 125.092V126.614H199.372V123.149H210.75C210.75 122.408 210.583 121.751 210.251 121.18C209.919 120.601 209.463 120.145 208.883 119.812C208.304 119.48 207.639 119.314 206.889 119.314C206.105 119.314 205.406 119.497 204.792 119.864C204.187 120.222 203.71 120.699 203.36 121.295C203.019 121.892 202.84 122.561 202.823 123.303V126.678C202.823 127.598 202.998 128.395 203.348 129.068C203.697 129.733 204.187 130.249 204.818 130.615C205.457 130.982 206.215 131.165 207.093 131.165C207.681 131.165 208.214 131.084 208.691 130.922C209.177 130.751 209.595 130.504 209.944 130.18C210.294 129.857 210.558 129.456 210.737 128.979L216.004 129.26C215.757 130.496 215.237 131.574 214.444 132.494C213.652 133.406 212.625 134.114 211.363 134.616C210.102 135.119 208.644 135.371 206.991 135.371ZM226.366 135.371C224.329 135.371 222.582 134.945 221.124 134.092C219.675 133.24 218.559 132.051 217.775 130.526C216.999 129 216.612 127.24 216.612 125.246C216.612 123.243 217.004 121.479 217.788 119.953C218.572 118.428 219.688 117.239 221.137 116.386C222.595 115.534 224.329 115.108 226.34 115.108C228.087 115.108 229.613 115.428 230.917 116.067C232.229 116.697 233.261 117.588 234.011 118.739C234.769 119.889 235.178 121.236 235.238 122.778H229.869C229.732 121.79 229.366 121.001 228.769 120.413C228.173 119.817 227.393 119.518 226.43 119.518C225.629 119.518 224.925 119.74 224.32 120.183C223.724 120.618 223.255 121.257 222.914 122.101C222.582 122.945 222.416 123.972 222.416 125.182C222.416 126.401 222.582 127.436 222.914 128.288C223.247 129.141 223.711 129.788 224.308 130.232C224.913 130.675 225.62 130.896 226.43 130.896C227.035 130.896 227.576 130.768 228.053 130.513C228.539 130.257 228.94 129.886 229.255 129.401C229.57 128.915 229.775 128.327 229.869 127.636H235.238C235.17 129.179 234.765 130.534 234.024 131.702C233.291 132.861 232.272 133.764 230.968 134.412C229.673 135.051 228.139 135.371 226.366 135.371ZM242.215 123.699V135H236.501V108.818H242.049V118.879H242.267C242.718 117.703 243.438 116.783 244.427 116.118C245.424 115.445 246.664 115.108 248.147 115.108C249.519 115.108 250.713 115.406 251.727 116.003C252.75 116.599 253.542 117.452 254.105 118.56C254.676 119.659 254.957 120.967 254.948 122.484V135H249.234V123.545C249.242 122.378 248.948 121.466 248.352 120.81C247.755 120.153 246.92 119.825 245.846 119.825C245.139 119.825 244.508 119.979 243.954 120.286C243.409 120.592 242.982 121.036 242.676 121.615C242.377 122.195 242.224 122.889 242.215 123.699ZM259.759 142.364C259.052 142.364 258.387 142.308 257.765 142.197C257.142 142.087 256.618 141.95 256.192 141.788L257.471 137.557C258.101 137.753 258.672 137.864 259.184 137.889C259.695 137.915 260.138 137.808 260.513 137.57C260.888 137.339 261.186 136.939 261.408 136.368L261.702 135.614L254.684 115.364H260.679L264.604 129.643H264.809L268.759 115.364H274.793L267.238 137.045C266.871 138.102 266.368 139.031 265.729 139.832C265.098 140.634 264.293 141.256 263.313 141.699C262.341 142.142 261.157 142.364 259.759 142.364ZM283.599 142.773C281.8 142.773 280.258 142.526 278.971 142.031C277.692 141.537 276.678 140.864 275.928 140.011C275.187 139.159 274.718 138.2 274.522 137.135L279.853 136.572C279.989 136.964 280.215 137.322 280.53 137.646C280.854 137.979 281.28 138.239 281.809 138.426C282.346 138.622 282.989 138.72 283.739 138.72C284.873 138.72 285.81 138.443 286.552 137.889C287.302 137.335 287.677 136.402 287.677 135.089V131.536H287.459C287.212 132.098 286.846 132.622 286.36 133.108C285.874 133.594 285.256 133.986 284.506 134.284C283.765 134.582 282.883 134.732 281.86 134.732C280.403 134.732 279.073 134.391 277.871 133.709C276.67 133.027 275.711 131.979 274.995 130.564C274.287 129.149 273.934 127.342 273.934 125.143C273.934 122.893 274.296 121.027 275.02 119.544C275.753 118.053 276.721 116.94 277.922 116.207C279.124 115.474 280.432 115.108 281.847 115.108C282.921 115.108 283.829 115.291 284.57 115.658C285.312 116.024 285.912 116.484 286.373 117.038C286.841 117.584 287.195 118.134 287.434 118.688H287.638V115.364H293.314V135.153C293.314 136.824 292.901 138.222 292.074 139.347C291.256 140.48 290.114 141.332 288.648 141.903C287.191 142.483 285.508 142.773 283.599 142.773ZM283.739 130.487C284.574 130.487 285.286 130.274 285.874 129.848C286.462 129.422 286.91 128.808 287.216 128.007C287.532 127.206 287.689 126.247 287.689 125.131C287.689 124.014 287.536 123.043 287.229 122.216C286.922 121.389 286.475 120.75 285.887 120.298C285.299 119.847 284.583 119.621 283.739 119.621C282.878 119.621 282.154 119.855 281.566 120.324C280.986 120.784 280.543 121.428 280.236 122.254C279.93 123.081 279.776 124.04 279.776 125.131C279.776 126.23 279.93 127.18 280.236 127.982C280.543 128.783 280.991 129.401 281.579 129.835C282.167 130.27 282.887 130.487 283.739 130.487ZM295.376 135V115.364H300.925V118.841H301.129C301.487 117.597 302.08 116.663 302.906 116.041C303.741 115.411 304.705 115.095 305.795 115.095C306.077 115.095 306.371 115.112 306.678 115.146C306.993 115.18 307.274 115.227 307.521 115.287V120.324C307.249 120.239 306.882 120.166 306.422 120.107C305.962 120.047 305.544 120.017 305.169 120.017C304.385 120.017 303.686 120.187 303.072 120.528C302.459 120.869 301.973 121.342 301.615 121.947C301.266 122.544 301.091 123.243 301.091 124.044V135H295.376ZM308.087 135V115.364H313.636V118.841H313.84C314.198 117.597 314.791 116.663 315.617 116.041C316.453 115.411 317.416 115.095 318.507 115.095C318.788 115.095 319.082 115.112 319.389 115.146C319.704 115.18 319.985 115.227 320.232 115.287V120.324C319.96 120.239 319.593 120.166 319.133 120.107C318.673 120.047 318.255 120.017 317.88 120.017C317.096 120.017 316.397 120.187 315.784 120.528C315.17 120.869 314.684 121.342 314.326 121.947C313.977 122.544 313.802 123.243 313.802 124.044V135H308.087ZM320.799 135V115.364H326.347V118.841H326.551C326.909 117.597 327.502 116.663 328.328 116.041C329.164 115.411 330.127 115.095 331.218 115.095C331.499 115.095 331.793 115.112 332.1 115.146C332.415 115.18 332.696 115.227 332.943 115.287V120.324C332.671 120.239 332.304 120.166 331.844 120.107C331.384 120.047 330.966 120.017 330.591 120.017C329.807 120.017 329.108 120.187 328.495 120.528C327.881 120.869 327.395 121.342 327.037 121.947C326.688 122.544 326.513 123.243 326.513 124.044V135H320.799ZM339.224 108.818V135H333.51V108.818H339.224Z" fill="#EF15BF"/>
</g>
<defs>
<filter id="filter0_d_645_35" x="19.1758" y="46.6611" width="323.645" height="70.1116" filterUnits="userSpaceOnUse" color-interpolation-filters="sRGB">
<feFlood flood-opacity="0" result="BackgroundImageFix"/>
<feColorMatrix in="SourceAlpha" type="matrix" values="0 0 0 0 0 0 0 0 0 0 0 0 0 0 0 0 0 0 127 0" result="hardAlpha"/>
<feOffset dy="4"/>
<feGaussianBlur stdDeviation="2"/>
<feComposite in2="hardAlpha" operator="out"/>
<feColorMatrix type="matrix" values="0 0 0 0 0 0 0 0 0 0 0 0 0 0 0 0 0 0 0.25 0"/>
<feBlend mode="normal" in2="BackgroundImageFix" result="effect1_dropShadow_645_35"/>
<feBlend mode="normal" in="SourceGraphic" in2="effect1_dropShadow_645_35" result="shape"/>
</filter>
<filter id="filter1_d_645_35" x="137.188" y="108.818" width="206.035" height="41.9546" filterUnits="userSpaceOnUse" color-interpolation-filters="sRGB">
<feFlood flood-opacity="0" result="BackgroundImageFix"/>
<feColorMatrix in="SourceAlpha" type="matrix" values="0 0 0 0 0 0 0 0 0 0 0 0 0 0 0 0 0 0 127 0" result="hardAlpha"/>
<feOffset dy="4"/>
<feGaussianBlur stdDeviation="2"/>
<feComposite in2="hardAlpha" operator="out"/>
<feColorMatrix type="matrix" values="0 0 0 0 0 0 0 0 0 0 0 0 0 0 0 0 0 0 0.25 0"/>
<feBlend mode="normal" in2="BackgroundImageFix" result="effect1_dropShadow_645_35"/>
<feBlend mode="normal" in="SourceGraphic" in2="effect1_dropShadow_645_35" result="shape"/>
</filter>
</defs>
</svg>
